<?xml version="1.0" encoding="UTF-8"?>
<svg width="398px" height="46px" viewBox="0 0 398 46" version="1.1" xmlns="http://www.w3.org/2000/svg" xmlns:xlink="http://www.w3.org/1999/xlink">
    <!-- Generator: Sketch 49.2 (51160) - http://www.bohemiancoding.com/sketch -->
    <title>logo-ce-blue</title>
    <desc>Created with Sketch.</desc>
    <defs></defs>
    <g id="chainnews" stroke="none" stroke-width="1" fill="none" fill-rule="evenodd">
        <g id="ChainNews-Logo" transform="translate(-761.000000, -219.000000)">
            <g id="logo-ce-blue" transform="translate(760.000000, 204.000000)">
                <path d="M34.272,36.752 L30.912,36.752 C29.232,36.752 27.504,37.04 27.072,37.52 C26.784,36.464 25.968,33.968 25.392,32.576 C26.256,32.336 26.88,31.136 27.6,29.456 C27.888,28.784 28.416,27.296 28.992,25.424 L25.152,25.424 L25.152,20.432 L30.24,20.432 C30.624,18.704 30.96,16.928 31.2,15.152 L36.864,16.16 C36.528,17.6 36.192,18.992 35.76,20.432 L45.696,20.432 L45.696,25.424 L34.128,25.424 C33.264,27.776 32.304,30.08 31.44,32.096 L34.272,32.096 L34.272,27.056 L39.6,27.056 L39.6,32.096 L44.88,32.096 L44.88,36.752 L39.6,36.752 L39.6,41.264 L46.176,41.264 L46.176,46.256 L39.6,46.256 L39.6,52.688 L34.272,52.688 L34.272,46.256 L25.392,46.256 L25.392,41.264 L34.272,41.264 L34.272,36.752 Z M24,26.048 L19.056,27.632 C18.576,24.992 17.376,20.912 16.272,17.888 L20.976,16.496 C22.128,19.52 23.424,23.408 24,26.048 Z M11.712,50.288 L15.216,47.696 C15.552,49.088 16.272,51.104 16.848,52.064 C9.264,57.68 7.92,58.88 7.152,59.888 L7.104,59.6 C7.056,59.696 7.056,59.792 7.056,59.888 C6.576,58.88 5.184,56.96 4.32,56.24 C5.328,55.424 6.72,53.648 6.72,51.104 L6.72,43.568 L2.448,43.568 L2.448,38.72 L6.72,38.72 L6.72,33.728 L4.512,33.728 L4.512,30.464 C4.272,30.896 3.936,31.28 3.648,31.568 C3.264,30.416 1.92,27.632 1.104,26.432 C3.312,23.696 4.992,19.616 6.048,15.488 L10.752,16.832 C10.464,17.888 10.128,18.944 9.744,20.048 L16.08,20.048 L16.08,24.944 L7.824,24.944 C7.104,26.384 6.384,27.68 5.568,28.928 L14.928,28.928 L14.928,33.728 L11.712,33.728 L11.712,38.72 L16.272,38.72 L16.272,43.568 L11.712,43.568 L11.712,50.288 Z M24.048,30.896 L24.048,50.48 C24.864,50.912 25.728,51.584 26.88,52.256 C29.28,53.696 32.256,54.128 35.952,54.128 C38.832,54.128 43.728,53.84 46.848,53.408 C46.368,54.896 45.648,57.68 45.6,59.12 C43.2,59.312 38.88,59.456 35.904,59.456 C31.776,59.456 28.896,58.736 26.304,57.152 C24.624,56.144 23.184,54.944 22.272,54.944 C21.12,54.944 19.248,57.776 17.856,60.176 L14.352,54.848 C15.792,53.312 17.376,51.968 18.912,51.104 L18.912,36.032 L16.128,36.032 L16.128,30.896 L24.048,30.896 Z M51.36,60.128 L51.36,26.864 L57.168,26.864 L57.168,60.128 L51.36,60.128 Z M52.224,18.416 L56.352,15.584 C58.608,17.552 61.296,20.336 62.544,22.352 L58.08,25.52 C56.976,23.552 54.384,20.48 52.224,18.416 Z M67.296,43.856 L67.296,47.072 C70.128,46.88 73.2,46.688 76.32,46.448 L76.32,43.856 L67.296,43.856 Z M76.32,30.608 L67.296,30.608 L67.296,33.152 L76.32,33.152 L76.32,30.608 Z M67.296,37.136 L67.296,39.872 L76.32,39.872 L76.32,37.136 L67.296,37.136 Z M85.104,50.192 L81.408,50.528 L81.408,55.952 L76.32,55.952 L76.32,50.912 C69.936,51.44 63.84,51.872 59.088,52.256 L58.608,47.6 C59.712,47.552 60.912,47.456 62.208,47.408 L62.208,30.608 L59.616,30.608 L59.616,26.24 L84.096,26.24 L84.096,30.608 L81.408,30.608 L81.408,46.064 L85.056,45.824 L85.104,50.192 Z M92.832,17.12 L92.832,54.032 C92.832,56.768 92.352,58.112 90.72,59.024 C89.136,59.888 86.784,60.032 83.52,60.032 C83.328,58.592 82.608,56.24 81.936,54.848 C83.712,54.944 85.68,54.944 86.304,54.944 C86.976,54.896 87.168,54.704 87.168,54.032 L87.168,22.208 L64.512,22.208 L64.512,17.12 L92.832,17.12 Z" id="链闻" fill="#0056FF"></path>
                <path d="M130.376,46.952 C130.568001,46.952 130.759999,46.9879996 130.952,47.06 C131.144001,47.1320004 131.327999,47.2559991 131.504,47.432 L134.72,50.816 C133.311993,52.6560092 131.548011,54.0439953 129.428,54.98 C127.307989,55.9160047 124.800014,56.384 121.904,56.384 C119.247987,56.384 116.868011,55.9320045 114.764,55.028 C112.659989,54.1239955 110.876007,52.876008 109.412,51.284 C107.947993,49.691992 106.824004,47.8040109 106.04,45.62 C105.255996,43.4359891 104.864,41.0640128 104.864,38.504 C104.864,35.895987 105.311996,33.5000109 106.208,31.316 C107.104004,29.1319891 108.355992,27.2480079 109.964,25.664 C111.572008,24.0799921 113.495989,22.8480044 115.736,21.968 C117.976011,21.0879956 120.447986,20.648 123.152,20.648 C124.464007,20.648 125.699994,20.7639988 126.86,20.996 C128.020006,21.2280012 129.103995,21.547998 130.112,21.956 C131.120005,22.364002 132.047996,22.8519972 132.896,23.42 C133.744004,23.9880028 134.495997,24.6159966 135.152,25.304 L132.416,28.976 C132.239999,29.2000011 132.032001,29.4039991 131.792,29.588 C131.551999,29.7720009 131.216002,29.864 130.784,29.864 C130.495999,29.864 130.224001,29.8000006 129.968,29.672 C129.711999,29.5439994 129.440001,29.3880009 129.152,29.204 C128.863999,29.0199991 128.548002,28.8200011 128.204,28.604 C127.859998,28.3879989 127.452002,28.1880009 126.98,28.004 C126.507998,27.8199991 125.956003,27.6640006 125.324,27.536 C124.691997,27.4079994 123.952004,27.344 123.104,27.344 C121.631993,27.344 120.288006,27.6039974 119.072,28.124 C117.855994,28.6440026 116.812004,29.3879952 115.94,30.356 C115.067996,31.3240048 114.388002,32.4959931 113.9,33.872 C113.411998,35.2480069 113.168,36.7919914 113.168,38.504 C113.168,40.296009 113.411998,41.887993 113.9,43.28 C114.388002,44.672007 115.051996,45.8439952 115.892,46.796 C116.732004,47.7480048 117.711994,48.4719975 118.832,48.968 C119.952006,49.4640025 121.151994,49.712 122.432,49.712 C123.168004,49.712 123.839997,49.6760004 124.448,49.604 C125.056003,49.5319996 125.619997,49.4080009 126.14,49.232 C126.660003,49.0559991 127.155998,48.8280014 127.628,48.548 C128.100002,48.2679986 128.575998,47.9200021 129.056,47.504 C129.248001,47.3439992 129.455999,47.2120005 129.68,47.108 C129.904001,47.0039995 130.135999,46.952 130.376,46.952 Z M168.944,56 L160.784,56 L160.784,41.216 L146.576,41.216 L146.576,56 L138.416,56 L138.416,21.032 L146.576,21.032 L146.576,35.648 L160.784,35.648 L160.784,21.032 L168.944,21.032 L168.944,56 Z M207.248,56 L200.96,56 C200.255996,56 199.676002,55.8360016 199.22,55.508 C198.763998,55.1799984 198.448001,54.7600026 198.272,54.248 L196.208,48.152 L182.912,48.152 L180.848,54.248 C180.687999,54.6960022 180.376002,55.0999982 179.912,55.46 C179.447998,55.8200018 178.880003,56 178.208,56 L171.872,56 L185.408,21.032 L193.712,21.032 L207.248,56 Z M184.784,42.632 L194.336,42.632 L191.12,33.056 C190.911999,32.447997 190.668001,31.7320041 190.388,30.908 C190.107999,30.0839959 189.832001,29.1920048 189.56,28.232 C189.303999,29.2080049 189.040001,30.1119958 188.768,30.944 C188.495999,31.7760042 188.240001,32.495997 188,33.104 L184.784,42.632 Z M218.96,56 L210.8,56 L210.8,21.032 L218.96,21.032 L218.96,56 Z M229.712,21.032 C230.064002,21.032 230.359999,21.0479998 230.6,21.08 C230.840001,21.1120002 231.055999,21.1719996 231.248,21.26 C231.440001,21.3480004 231.623999,21.4719992 231.8,21.632 C231.976001,21.7920008 232.175999,22.0079986 232.4,22.28 L249.008,43.28 C248.944,42.6079966 248.896,41.9560032 248.864,41.324 C248.832,40.6919968 248.816,40.0960028 248.816,39.536 L248.816,21.032 L255.968,21.032 L255.968,56 L251.744,56 C251.119997,56 250.592002,55.904001 250.16,55.712 C249.727998,55.519999 249.312002,55.1680026 248.912,54.656 L232.424,33.824 C232.472,34.432003 232.512,35.0279971 232.544,35.612 C232.576,36.1960029 232.592,36.7439974 232.592,37.256 L232.592,56 L225.44,56 L225.44,21.032 L229.712,21.032 Z" id="CHAIN" fill="#0056FF"></path>
                <path d="M266.32,21.032 C266.672002,21.032 266.967999,21.0479998 267.208,21.08 C267.448001,21.1120002 267.663999,21.1719996 267.856,21.26 C268.048001,21.3480004 268.231999,21.4719992 268.408,21.632 C268.584001,21.7920008 268.783999,22.0079986 269.008,22.28 L285.616,43.28 C285.552,42.6079966 285.504,41.9560032 285.472,41.324 C285.44,40.6919968 285.424,40.0960028 285.424,39.536 L285.424,21.032 L292.576,21.032 L292.576,56 L288.352,56 C287.727997,56 287.200002,55.904001 286.768,55.712 C286.335998,55.519999 285.920002,55.1680026 285.52,54.656 L269.032,33.824 C269.08,34.432003 269.12,35.0279971 269.152,35.612 C269.184,36.1960029 269.2,36.7439974 269.2,37.256 L269.2,56 L262.048,56 L262.048,21.032 L266.32,21.032 Z M320.848,21.032 L320.848,27.272 L306.496,27.272 L306.496,35.432 L317.488,35.432 L317.488,41.432 L306.496,41.432 L306.496,49.76 L320.848,49.76 L320.848,56 L298.336,56 L298.336,21.032 L320.848,21.032 Z M322.816,21.032 L329.632,21.032 C330.336004,21.032 330.923998,21.1919984 331.396,21.512 C331.868002,21.8320016 332.175999,22.2559974 332.32,22.784 L337.12,41.024 C337.280001,41.616003 337.439999,42.2479966 337.6,42.92 C337.760001,43.5920034 337.88,44.2959963 337.96,45.032 C338.120001,44.2799962 338.295999,43.5720033 338.488,42.908 C338.680001,42.2439967 338.863999,41.616003 339.04,41.024 L344.704,22.784 C344.848001,22.3359978 345.155998,21.9320018 345.628,21.572 C346.100002,21.2119982 346.671997,21.032 347.344,21.032 L349.744,21.032 C350.448004,21.032 351.027998,21.1879984 351.484,21.5 C351.940002,21.8120016 352.255999,22.2399973 352.432,22.784 L358.048,41.024 C358.224001,41.5840028 358.407999,42.1799968 358.6,42.812 C358.792001,43.4440032 358.959999,44.1199964 359.104,44.84 C359.232001,44.1359965 359.363999,43.4640032 359.5,42.824 C359.636001,42.1839968 359.775999,41.5840028 359.92,41.024 L364.72,22.784 C364.848001,22.3199977 365.151998,21.9120018 365.632,21.56 C366.112002,21.2079982 366.687997,21.032 367.36,21.032 L373.744,21.032 L362.944,56 L355.6,56 L349.024,34.328 C348.911999,33.9919983 348.796001,33.624002 348.676,33.224 C348.555999,32.823998 348.440001,32.4000022 348.328,31.952 C348.215999,32.4000022 348.100001,32.823998 347.98,33.224 C347.859999,33.624002 347.744001,33.9919983 347.632,34.328 L340.96,56 L333.616,56 L322.816,21.032 Z M396.352,28.136 C396.111999,28.5200019 395.860001,28.807999 395.596,29 C395.331999,29.192001 394.992002,29.288 394.576,29.288 C394.207998,29.288 393.812002,29.1720012 393.388,28.94 C392.963998,28.7079988 392.484003,28.4480014 391.948,28.16 C391.411997,27.8719986 390.800003,27.6120012 390.112,27.38 C389.423997,27.1479988 388.640004,27.032 387.76,27.032 C386.239992,27.032 385.108004,27.3559968 384.364,28.004 C383.619996,28.6520032 383.248,29.5279945 383.248,30.632 C383.248,31.3360035 383.471998,31.9199977 383.92,32.384 C384.368002,32.8480023 384.955996,33.2479983 385.684,33.584 C386.412004,33.9200017 387.243995,34.2279986 388.18,34.508 C389.116005,34.7880014 390.071995,35.0999983 391.048,35.444 C392.024005,35.7880017 392.979995,36.1919977 393.916,36.656 C394.852005,37.1200023 395.683996,37.7119964 396.412,38.432 C397.140004,39.1520036 397.727998,40.0279948 398.176,41.06 C398.624002,42.0920052 398.848,43.3359927 398.848,44.792 C398.848,46.4080081 398.568003,47.919993 398.008,49.328 C397.447997,50.736007 396.636005,51.9639948 395.572,53.012 C394.507995,54.0600052 393.196008,54.883997 391.636,55.484 C390.075992,56.084003 388.30401,56.384 386.32,56.384 C385.231995,56.384 384.124006,56.2720011 382.996,56.048 C381.867994,55.8239989 380.776005,55.508002 379.72,55.1 C378.663995,54.691998 377.672005,54.2080028 376.744,53.648 C375.815995,53.0879972 375.008003,52.4640034 374.32,51.776 L376.72,47.984 C376.896001,47.6959986 377.143998,47.4640009 377.464,47.288 C377.784002,47.1119991 378.127998,47.024 378.496,47.024 C378.976002,47.024 379.459998,47.1759985 379.948,47.48 C380.436002,47.7840015 380.987997,48.1199982 381.604,48.488 C382.220003,48.8560018 382.927996,49.1919985 383.728,49.496 C384.528004,49.8000015 385.471995,49.952 386.56,49.952 C388.032007,49.952 389.175996,49.6280032 389.992,48.98 C390.808004,48.3319968 391.216,47.304007 391.216,45.896 C391.216,45.0799959 390.992002,44.4160026 390.544,43.904 C390.095998,43.3919974 389.508004,42.9680017 388.78,42.632 C388.051996,42.2959983 387.224005,42.0000013 386.296,41.744 C385.367995,41.4879987 384.416005,41.2040016 383.44,40.892 C382.463995,40.5799984 381.512005,40.1960023 380.584,39.74 C379.655995,39.2839977 378.828004,38.6840037 378.1,37.94 C377.371996,37.1959963 376.784002,36.2680056 376.336,35.156 C375.887998,34.0439944 375.664,32.6720082 375.664,31.04 C375.664,29.7279934 375.927997,28.4480062 376.456,27.2 C376.984003,25.9519938 377.759995,24.8400049 378.784,23.864 C379.808005,22.8879951 381.063993,22.1080029 382.552,21.524 C384.040007,20.9399971 385.74399,20.648 387.664,20.648 C388.736005,20.648 389.779995,20.7319992 390.796,20.9 C391.812005,21.0680008 392.775995,21.3159984 393.688,21.644 C394.600005,21.9720016 395.451996,22.3639977 396.244,22.82 C397.036004,23.2760023 397.743997,23.7919971 398.368,24.368 L396.352,28.136 Z" id="NEWS" fill="#7FAAFF"></path>
            </g>
        </g>
    </g>
</svg>